<?xml version="1.0" encoding="utf-8"?>
<!-- Generator: Adobe Illustrator 15.0.0, SVG Export Plug-In . SVG Version: 6.00 Build 0)  -->
<!DOCTYPE svg PUBLIC "-//W3C//DTD SVG 1.1//EN" "http://www.w3.org/Graphics/SVG/1.1/DTD/svg11.dtd">
<svg version="1.1" id="Layer_1" xmlns="http://www.w3.org/2000/svg" xmlns:xlink="http://www.w3.org/1999/xlink" x="0px" y="0px"
	 width="819px" height="164px" viewBox="0 0 819 164" enable-background="new 0 0 819 164" xml:space="preserve">
<g>
	<g>
		<g>
			<g>
				<line id="_x31_-10-4" fill="none" stroke="#010202" stroke-linecap="square" x1="8.5" y1="4.5" x2="808.5" y2="4.5"/>
				<line id="_x32_-10-4" fill="none" stroke="#010202" stroke-linecap="square" x1="8.5" y1="4.5" x2="12.5" y2="0.5"/>
				<line id="_x33_-10-4" fill="none" stroke="#010202" stroke-linecap="square" x1="8.5" y1="4.5" x2="12.5" y2="8.5"/>
				<line id="_x34_-810-4" fill="none" stroke="#010202" stroke-linecap="square" x1="808.5" y1="4.5" x2="804.5" y2="0.5"/>
				<line id="_x35_-810-4" fill="none" stroke="#010202" stroke-linecap="square" x1="808.5" y1="4.5" x2="804.5" y2="8.5"/>
				<line id="_x36_-61-0" fill="none" stroke="#010202" stroke-linecap="square" x1="59.5" y1="0.5" x2="59.5" y2="8.5"/>
				<text id="_x37_-49-7" transform="matrix(1 0 0 1 47.5 16.5)" fill="#010202" font-family="'ArialMT'" font-size="11">0.1k</text>
				<line id="_x38_-113-0" fill="none" stroke="#010202" stroke-linecap="square" x1="111.5" y1="0.5" x2="111.5" y2="8.5"/>
				<text id="_x39_-101-7" transform="matrix(1 0 0 1 99.5 16.5)" fill="#010202" font-family="'ArialMT'" font-size="11">0.2k</text>
				<line id="_x31_0-165-0" fill="none" stroke="#010202" stroke-linecap="square" x1="163.5" y1="0.5" x2="163.5" y2="8.5"/>
				<text id="_x31_1-153-7" transform="matrix(1 0 0 1 151.5 16.5)" fill="#010202" font-family="'ArialMT'" font-size="11">0.3k</text>
				<line id="_x31_2-217-0" fill="none" stroke="#010202" stroke-linecap="square" x1="215.5" y1="0.5" x2="215.5" y2="8.5"/>
				<text id="_x31_3-205-7" transform="matrix(1 0 0 1 203.5 16.5)" fill="#010202" font-family="'ArialMT'" font-size="11">0.4k</text>
				<line id="_x31_4-269-0" fill="none" stroke="#010202" stroke-linecap="square" x1="267.5" y1="0.5" x2="267.5" y2="8.5"/>
				<text id="_x31_5-257-7" transform="matrix(1 0 0 1 255.5 16.5)" fill="#010202" font-family="'ArialMT'" font-size="11">0.5k</text>
				<line id="_x31_6-321-0" fill="none" stroke="#010202" stroke-linecap="square" x1="319.5" y1="0.5" x2="319.5" y2="8.5"/>
				<text id="_x31_7-309-7" transform="matrix(1 0 0 1 307.5 16.5)" fill="#010202" font-family="'ArialMT'" font-size="11">0.6k</text>
				<line id="_x31_8-373-0" fill="none" stroke="#010202" stroke-linecap="square" x1="371.5" y1="0.5" x2="371.5" y2="8.5"/>
				<text id="_x31_9-361-7" transform="matrix(1 0 0 1 359.5 16.5)" fill="#010202" font-family="'ArialMT'" font-size="11">0.7k</text>
				<line id="_x32_0-425-0" fill="none" stroke="#010202" stroke-linecap="square" x1="423.5" y1="0.5" x2="423.5" y2="8.5"/>
				<text id="_x32_1-413-7" transform="matrix(1 0 0 1 411.5 16.5)" fill="#010202" font-family="'ArialMT'" font-size="11">0.8k</text>
				<line id="_x32_2-476-0" fill="none" stroke="#010202" stroke-linecap="square" x1="474.5" y1="0.5" x2="474.5" y2="8.5"/>
				<text id="_x32_3-464-7" transform="matrix(1 0 0 1 462.5 16.5)" fill="#010202" font-family="'ArialMT'" font-size="11">0.9k</text>
				<line id="_x32_4-528-0" fill="none" stroke="#010202" stroke-linecap="square" x1="526.5" y1="0.5" x2="526.5" y2="8.5"/>
				<text id="_x32_5-522-7" transform="matrix(1 0 0 1 520.5 16.5)" fill="#010202" font-family="'ArialMT'" font-size="11">1k</text>
				<line id="_x32_6-580-0" fill="none" stroke="#010202" stroke-linecap="square" x1="578.5" y1="0.5" x2="578.5" y2="8.5"/>
				<text id="_x32_7-568-7" transform="matrix(1 0 0 1 566.5 16.5)" fill="#010202" font-family="'ArialMT'" font-size="11">1.1k</text>
				<line id="_x32_8-632-0" fill="none" stroke="#010202" stroke-linecap="square" x1="630.5" y1="0.5" x2="630.5" y2="8.5"/>
				<text id="_x32_9-620-7" transform="matrix(1 0 0 1 618.5 16.5)" fill="#010202" font-family="'ArialMT'" font-size="11">1.2k</text>
				<line id="_x33_0-684-0" fill="none" stroke="#010202" stroke-linecap="square" x1="682.5" y1="0.5" x2="682.5" y2="8.5"/>
				<text id="_x33_1-672-7" transform="matrix(1 0 0 1 670.5 16.5)" fill="#010202" font-family="'ArialMT'" font-size="11">1.3k</text>
				<line id="_x33_2-736-0" fill="none" stroke="#010202" stroke-linecap="square" x1="734.5" y1="0.5" x2="734.5" y2="8.5"/>
				<text id="_x33_3-724-7" transform="matrix(1 0 0 1 722.5 16.5)" fill="#010202" font-family="'ArialMT'" font-size="11">1.4k</text>
				<line id="_x33_4-788-0" fill="none" stroke="#010202" stroke-linecap="square" x1="786.5" y1="0.5" x2="786.5" y2="8.5"/>
				<text id="_x33_5-776-7" transform="matrix(1 0 0 1 774.5 16.5)" fill="#010202" font-family="'ArialMT'" font-size="11">1.5k</text>
				<line id="_x33_6-20-2" fill="none" stroke="#010202" stroke-linecap="square" x1="18.5" y1="2.5" x2="18.5" y2="6.5"/>
				<line id="_x33_7-25-2" fill="none" stroke="#010202" stroke-linecap="square" x1="23.5" y1="2.5" x2="23.5" y2="6.5"/>
				<line id="_x33_8-30-2" fill="none" stroke="#010202" stroke-linecap="square" x1="28.5" y1="2.5" x2="28.5" y2="6.5"/>
				<line id="_x33_9-35-2" fill="none" stroke="#010202" stroke-linecap="square" x1="33.5" y1="2.5" x2="33.5" y2="6.5"/>
				<line id="_x34_0-41-2" fill="none" stroke="#010202" stroke-linecap="square" x1="39.5" y1="2.5" x2="39.5" y2="6.5"/>
				<line id="_x34_1-46-2" fill="none" stroke="#010202" stroke-linecap="square" x1="44.5" y1="2.5" x2="44.5" y2="6.5"/>
				<line id="_x34_2-51-2" fill="none" stroke="#010202" stroke-linecap="square" x1="49.5" y1="2.5" x2="49.5" y2="6.5"/>
				<line id="_x34_3-56-2" fill="none" stroke="#010202" stroke-linecap="square" x1="54.5" y1="2.5" x2="54.5" y2="6.5"/>
				<line id="_x34_4-67-2" fill="none" stroke="#010202" stroke-linecap="square" x1="65.5" y1="2.5" x2="65.5" y2="6.5"/>
				<line id="_x34_5-72-2" fill="none" stroke="#010202" stroke-linecap="square" x1="70.5" y1="2.5" x2="70.5" y2="6.5"/>
				<line id="_x34_6-77-2" fill="none" stroke="#010202" stroke-linecap="square" x1="75.5" y1="2.5" x2="75.5" y2="6.5"/>
				<line id="_x34_7-82-2" fill="none" stroke="#010202" stroke-linecap="square" x1="80.5" y1="2.5" x2="80.5" y2="6.5"/>
				<line id="_x34_8-87-2" fill="none" stroke="#010202" stroke-linecap="square" x1="85.5" y1="2.5" x2="85.5" y2="6.5"/>
				<line id="_x34_9-92-2" fill="none" stroke="#010202" stroke-linecap="square" x1="90.5" y1="2.5" x2="90.5" y2="6.5"/>
				<line id="_x35_0-98-2" fill="none" stroke="#010202" stroke-linecap="square" x1="96.5" y1="2.5" x2="96.5" y2="6.5"/>
				<line id="_x35_1-103-2" fill="none" stroke="#010202" stroke-linecap="square" x1="101.5" y1="2.5" x2="101.5" y2="6.5"/>
				<line id="_x35_2-108-2" fill="none" stroke="#010202" stroke-linecap="square" x1="106.5" y1="2.5" x2="106.5" y2="6.5"/>
				<line id="_x35_3-118-2" fill="none" stroke="#010202" stroke-linecap="square" x1="116.5" y1="2.5" x2="116.5" y2="6.5"/>
				<line id="_x35_4-124-2" fill="none" stroke="#010202" stroke-linecap="square" x1="122.5" y1="2.5" x2="122.5" y2="6.5"/>
				<line id="_x35_5-129-2" fill="none" stroke="#010202" stroke-linecap="square" x1="127.5" y1="2.5" x2="127.5" y2="6.5"/>
				<line id="_x35_6-134-2" fill="none" stroke="#010202" stroke-linecap="square" x1="132.5" y1="2.5" x2="132.5" y2="6.5"/>
				<line id="_x35_7-139-2" fill="none" stroke="#010202" stroke-linecap="square" x1="137.5" y1="2.5" x2="137.5" y2="6.5"/>
				<line id="_x35_8-144-2" fill="none" stroke="#010202" stroke-linecap="square" x1="142.5" y1="2.5" x2="142.5" y2="6.5"/>
				<line id="_x35_9-150-2" fill="none" stroke="#010202" stroke-linecap="square" x1="148.5" y1="2.5" x2="148.5" y2="6.5"/>
				<line id="_x36_0-155-2" fill="none" stroke="#010202" stroke-linecap="square" x1="153.5" y1="2.5" x2="153.5" y2="6.5"/>
				<line id="_x36_1-160-2" fill="none" stroke="#010202" stroke-linecap="square" x1="158.5" y1="2.5" x2="158.5" y2="6.5"/>
				<line id="_x36_2-170-2" fill="none" stroke="#010202" stroke-linecap="square" x1="168.5" y1="2.5" x2="168.5" y2="6.5"/>
				<line id="_x36_3-175-2" fill="none" stroke="#010202" stroke-linecap="square" x1="173.5" y1="2.5" x2="173.5" y2="6.5"/>
				<line id="_x36_4-181-2" fill="none" stroke="#010202" stroke-linecap="square" x1="179.5" y1="2.5" x2="179.5" y2="6.5"/>
				<line id="_x36_5-186-2" fill="none" stroke="#010202" stroke-linecap="square" x1="184.5" y1="2.5" x2="184.5" y2="6.5"/>
				<line id="_x36_6-191-2" fill="none" stroke="#010202" stroke-linecap="square" x1="189.5" y1="2.5" x2="189.5" y2="6.5"/>
				<line id="_x36_7-196-2" fill="none" stroke="#010202" stroke-linecap="square" x1="194.5" y1="2.5" x2="194.5" y2="6.5"/>
				<line id="_x36_8-201-2" fill="none" stroke="#010202" stroke-linecap="square" x1="199.5" y1="2.5" x2="199.5" y2="6.5"/>
				<line id="_x36_9-207-2" fill="none" stroke="#010202" stroke-linecap="square" x1="205.5" y1="2.5" x2="205.5" y2="6.5"/>
				<line id="_x37_0-212-2" fill="none" stroke="#010202" stroke-linecap="square" x1="210.5" y1="2.5" x2="210.5" y2="6.5"/>
				<line id="_x37_1-222-2" fill="none" stroke="#010202" stroke-linecap="square" x1="220.5" y1="2.5" x2="220.5" y2="6.5"/>
				<line id="_x37_2-227-2" fill="none" stroke="#010202" stroke-linecap="square" x1="225.5" y1="2.5" x2="225.5" y2="6.5"/>
				<line id="_x37_3-233-2" fill="none" stroke="#010202" stroke-linecap="square" x1="231.5" y1="2.5" x2="231.5" y2="6.5"/>
				<line id="_x37_4-238-2" fill="none" stroke="#010202" stroke-linecap="square" x1="236.5" y1="2.5" x2="236.5" y2="6.5"/>
				<line id="_x37_5-243-2" fill="none" stroke="#010202" stroke-linecap="square" x1="241.5" y1="2.5" x2="241.5" y2="6.5"/>
				<line id="_x37_6-248-2" fill="none" stroke="#010202" stroke-linecap="square" x1="246.5" y1="2.5" x2="246.5" y2="6.5"/>
				<line id="_x37_7-253-2" fill="none" stroke="#010202" stroke-linecap="square" x1="251.5" y1="2.5" x2="251.5" y2="6.5"/>
				<line id="_x37_8-259-2" fill="none" stroke="#010202" stroke-linecap="square" x1="257.5" y1="2.5" x2="257.5" y2="6.5"/>
				<line id="_x37_9-264-2" fill="none" stroke="#010202" stroke-linecap="square" x1="262.5" y1="2.5" x2="262.5" y2="6.5"/>
				<line id="_x38_0-274-2" fill="none" stroke="#010202" stroke-linecap="square" x1="272.5" y1="2.5" x2="272.5" y2="6.5"/>
				<line id="_x38_1-279-2" fill="none" stroke="#010202" stroke-linecap="square" x1="277.5" y1="2.5" x2="277.5" y2="6.5"/>
				<line id="_x38_2-284-2" fill="none" stroke="#010202" stroke-linecap="square" x1="282.5" y1="2.5" x2="282.5" y2="6.5"/>
				<line id="_x38_3-290-2" fill="none" stroke="#010202" stroke-linecap="square" x1="288.5" y1="2.5" x2="288.5" y2="6.5"/>
				<line id="_x38_4-295-2" fill="none" stroke="#010202" stroke-linecap="square" x1="293.5" y1="2.5" x2="293.5" y2="6.5"/>
				<line id="_x38_5-300-2" fill="none" stroke="#010202" stroke-linecap="square" x1="298.5" y1="2.5" x2="298.5" y2="6.5"/>
				<line id="_x38_6-305-2" fill="none" stroke="#010202" stroke-linecap="square" x1="303.5" y1="2.5" x2="303.5" y2="6.5"/>
				<line id="_x38_7-310-2" fill="none" stroke="#010202" stroke-linecap="square" x1="308.5" y1="2.5" x2="308.5" y2="6.5"/>
				<line id="_x38_8-316-2" fill="none" stroke="#010202" stroke-linecap="square" x1="314.5" y1="2.5" x2="314.5" y2="6.5"/>
				<line id="_x38_9-326-2" fill="none" stroke="#010202" stroke-linecap="square" x1="324.5" y1="2.5" x2="324.5" y2="6.5"/>
				<line id="_x39_0-331-2" fill="none" stroke="#010202" stroke-linecap="square" x1="329.5" y1="2.5" x2="329.5" y2="6.5"/>
				<line id="_x39_1-336-2" fill="none" stroke="#010202" stroke-linecap="square" x1="334.5" y1="2.5" x2="334.5" y2="6.5"/>
				<line id="_x39_2-342-2" fill="none" stroke="#010202" stroke-linecap="square" x1="340.5" y1="2.5" x2="340.5" y2="6.5"/>
				<line id="_x39_3-347-2" fill="none" stroke="#010202" stroke-linecap="square" x1="345.5" y1="2.5" x2="345.5" y2="6.5"/>
				<line id="_x39_4-352-2" fill="none" stroke="#010202" stroke-linecap="square" x1="350.5" y1="2.5" x2="350.5" y2="6.5"/>
				<line id="_x39_5-357-2" fill="none" stroke="#010202" stroke-linecap="square" x1="355.5" y1="2.5" x2="355.5" y2="6.5"/>
				<line id="_x39_6-362-2" fill="none" stroke="#010202" stroke-linecap="square" x1="360.5" y1="2.5" x2="360.5" y2="6.5"/>
				<line id="_x39_7-367-2" fill="none" stroke="#010202" stroke-linecap="square" x1="365.5" y1="2.5" x2="365.5" y2="6.5"/>
				<line id="_x39_8-378-2" fill="none" stroke="#010202" stroke-linecap="square" x1="376.5" y1="2.5" x2="376.5" y2="6.5"/>
				<line id="_x39_9-383-2" fill="none" stroke="#010202" stroke-linecap="square" x1="381.5" y1="2.5" x2="381.5" y2="6.5"/>
				<line id="_x31_00-388-2" fill="none" stroke="#010202" stroke-linecap="square" x1="386.5" y1="2.5" x2="386.5" y2="6.5"/>
				<line id="_x31_01-393-2" fill="none" stroke="#010202" stroke-linecap="square" x1="391.5" y1="2.5" x2="391.5" y2="6.5"/>
				<line id="_x31_02-399-2" fill="none" stroke="#010202" stroke-linecap="square" x1="397.5" y1="2.5" x2="397.5" y2="6.5"/>
				<line id="_x31_03-404-2" fill="none" stroke="#010202" stroke-linecap="square" x1="402.5" y1="2.5" x2="402.5" y2="6.5"/>
				<line id="_x31_04-409-2" fill="none" stroke="#010202" stroke-linecap="square" x1="407.5" y1="2.5" x2="407.5" y2="6.5"/>
				<line id="_x31_05-414-2" fill="none" stroke="#010202" stroke-linecap="square" x1="412.5" y1="2.5" x2="412.5" y2="6.5"/>
				<line id="_x31_06-419-2" fill="none" stroke="#010202" stroke-linecap="square" x1="417.5" y1="2.5" x2="417.5" y2="6.5"/>
				<line id="_x31_07-430-2" fill="none" stroke="#010202" stroke-linecap="square" x1="428.5" y1="2.5" x2="428.5" y2="6.5"/>
				<line id="_x31_08-435-2" fill="none" stroke="#010202" stroke-linecap="square" x1="433.5" y1="2.5" x2="433.5" y2="6.5"/>
				<line id="_x31_09-440-2" fill="none" stroke="#010202" stroke-linecap="square" x1="438.5" y1="2.5" x2="438.5" y2="6.5"/>
				<line id="_x31_10-445-2" fill="none" stroke="#010202" stroke-linecap="square" x1="443.5" y1="2.5" x2="443.5" y2="6.5"/>
				<line id="_x31_11-450-2" fill="none" stroke="#010202" stroke-linecap="square" x1="448.5" y1="2.5" x2="448.5" y2="6.5"/>
				<line id="_x31_12-456-2" fill="none" stroke="#010202" stroke-linecap="square" x1="454.5" y1="2.5" x2="454.5" y2="6.5"/>
				<line id="_x31_13-461-2" fill="none" stroke="#010202" stroke-linecap="square" x1="459.5" y1="2.5" x2="459.5" y2="6.5"/>
				<line id="_x31_14-466-2" fill="none" stroke="#010202" stroke-linecap="square" x1="464.5" y1="2.5" x2="464.5" y2="6.5"/>
				<line id="_x31_15-471-2" fill="none" stroke="#010202" stroke-linecap="square" x1="469.5" y1="2.5" x2="469.5" y2="6.5"/>
				<line id="_x31_16-482-2" fill="none" stroke="#010202" stroke-linecap="square" x1="480.5" y1="2.5" x2="480.5" y2="6.5"/>
				<line id="_x31_17-487-2" fill="none" stroke="#010202" stroke-linecap="square" x1="485.5" y1="2.5" x2="485.5" y2="6.5"/>
				<line id="_x31_18-492-2" fill="none" stroke="#010202" stroke-linecap="square" x1="490.5" y1="2.5" x2="490.5" y2="6.5"/>
				<line id="_x31_19-497-2" fill="none" stroke="#010202" stroke-linecap="square" x1="495.5" y1="2.5" x2="495.5" y2="6.5"/>
				<line id="_x31_20-502-2" fill="none" stroke="#010202" stroke-linecap="square" x1="500.5" y1="2.5" x2="500.5" y2="6.5"/>
				<line id="_x31_21-508-2" fill="none" stroke="#010202" stroke-linecap="square" x1="506.5" y1="2.5" x2="506.5" y2="6.5"/>
				<line id="_x31_22-513-2" fill="none" stroke="#010202" stroke-linecap="square" x1="511.5" y1="2.5" x2="511.5" y2="6.5"/>
				<line id="_x31_23-518-2" fill="none" stroke="#010202" stroke-linecap="square" x1="516.5" y1="2.5" x2="516.5" y2="6.5"/>
				<line id="_x31_24-523-2" fill="none" stroke="#010202" stroke-linecap="square" x1="521.5" y1="2.5" x2="521.5" y2="6.5"/>
				<line id="_x31_25-533-2" fill="none" stroke="#010202" stroke-linecap="square" x1="531.5" y1="2.5" x2="531.5" y2="6.5"/>
				<line id="_x31_26-539-2" fill="none" stroke="#010202" stroke-linecap="square" x1="537.5" y1="2.5" x2="537.5" y2="6.5"/>
				<line id="_x31_27-544-2" fill="none" stroke="#010202" stroke-linecap="square" x1="542.5" y1="2.5" x2="542.5" y2="6.5"/>
				<line id="_x31_28-549-2" fill="none" stroke="#010202" stroke-linecap="square" x1="547.5" y1="2.5" x2="547.5" y2="6.5"/>
				<line id="_x31_29-554-2" fill="none" stroke="#010202" stroke-linecap="square" x1="552.5" y1="2.5" x2="552.5" y2="6.5"/>
				<line id="_x31_30-559-2" fill="none" stroke="#010202" stroke-linecap="square" x1="557.5" y1="2.5" x2="557.5" y2="6.5"/>
				<line id="_x31_31-565-2" fill="none" stroke="#010202" stroke-linecap="square" x1="563.5" y1="2.5" x2="563.5" y2="6.5"/>
				<line id="_x31_32-570-2" fill="none" stroke="#010202" stroke-linecap="square" x1="568.5" y1="2.5" x2="568.5" y2="6.5"/>
				<line id="_x31_33-575-2" fill="none" stroke="#010202" stroke-linecap="square" x1="573.5" y1="2.5" x2="573.5" y2="6.5"/>
				<line id="_x31_34-585-2" fill="none" stroke="#010202" stroke-linecap="square" x1="583.5" y1="2.5" x2="583.5" y2="6.5"/>
				<line id="_x31_35-591-2" fill="none" stroke="#010202" stroke-linecap="square" x1="589.5" y1="2.5" x2="589.5" y2="6.5"/>
				<line id="_x31_36-596-2" fill="none" stroke="#010202" stroke-linecap="square" x1="594.5" y1="2.5" x2="594.5" y2="6.5"/>
				<line id="_x31_37-601-2" fill="none" stroke="#010202" stroke-linecap="square" x1="599.5" y1="2.5" x2="599.5" y2="6.5"/>
				<line id="_x31_38-606-2" fill="none" stroke="#010202" stroke-linecap="square" x1="604.5" y1="2.5" x2="604.5" y2="6.5"/>
				<line id="_x31_39-611-2" fill="none" stroke="#010202" stroke-linecap="square" x1="609.5" y1="2.5" x2="609.5" y2="6.5"/>
				<line id="_x31_40-616-2" fill="none" stroke="#010202" stroke-linecap="square" x1="614.5" y1="2.5" x2="614.5" y2="6.5"/>
				<line id="_x31_41-622-2" fill="none" stroke="#010202" stroke-linecap="square" x1="620.5" y1="2.5" x2="620.5" y2="6.5"/>
				<line id="_x31_42-627-2" fill="none" stroke="#010202" stroke-linecap="square" x1="625.5" y1="2.5" x2="625.5" y2="6.5"/>
				<line id="_x31_43-637-2" fill="none" stroke="#010202" stroke-linecap="square" x1="635.5" y1="2.5" x2="635.5" y2="6.5"/>
				<line id="_x31_44-642-2" fill="none" stroke="#010202" stroke-linecap="square" x1="640.5" y1="2.5" x2="640.5" y2="6.5"/>
				<line id="_x31_45-648-2" fill="none" stroke="#010202" stroke-linecap="square" x1="646.5" y1="2.5" x2="646.5" y2="6.5"/>
				<line id="_x31_46-653-2" fill="none" stroke="#010202" stroke-linecap="square" x1="651.5" y1="2.5" x2="651.5" y2="6.5"/>
				<line id="_x31_47-658-2" fill="none" stroke="#010202" stroke-linecap="square" x1="656.5" y1="2.5" x2="656.5" y2="6.5"/>
				<line id="_x31_48-663-2" fill="none" stroke="#010202" stroke-linecap="square" x1="661.5" y1="2.5" x2="661.5" y2="6.5"/>
				<line id="_x31_49-668-2" fill="none" stroke="#010202" stroke-linecap="square" x1="666.5" y1="2.5" x2="666.5" y2="6.5"/>
				<line id="_x31_50-674-2" fill="none" stroke="#010202" stroke-linecap="square" x1="672.5" y1="2.5" x2="672.5" y2="6.5"/>
				<line id="_x31_51-679-2" fill="none" stroke="#010202" stroke-linecap="square" x1="677.5" y1="2.5" x2="677.5" y2="6.5"/>
				<line id="_x31_52-689-2" fill="none" stroke="#010202" stroke-linecap="square" x1="687.5" y1="2.5" x2="687.5" y2="6.5"/>
				<line id="_x31_53-694-2" fill="none" stroke="#010202" stroke-linecap="square" x1="692.5" y1="2.5" x2="692.5" y2="6.5"/>
				<line id="_x31_54-699-2" fill="none" stroke="#010202" stroke-linecap="square" x1="697.5" y1="2.5" x2="697.5" y2="6.5"/>
				<line id="_x31_55-705-2" fill="none" stroke="#010202" stroke-linecap="square" x1="703.5" y1="2.5" x2="703.5" y2="6.5"/>
				<line id="_x31_56-710-2" fill="none" stroke="#010202" stroke-linecap="square" x1="708.5" y1="2.5" x2="708.5" y2="6.5"/>
				<line id="_x31_57-715-2" fill="none" stroke="#010202" stroke-linecap="square" x1="713.5" y1="2.5" x2="713.5" y2="6.5"/>
				<line id="_x31_58-720-2" fill="none" stroke="#010202" stroke-linecap="square" x1="718.5" y1="2.5" x2="718.5" y2="6.5"/>
				<line id="_x31_59-725-2" fill="none" stroke="#010202" stroke-linecap="square" x1="723.5" y1="2.5" x2="723.5" y2="6.5"/>
				<line id="_x31_60-731-2" fill="none" stroke="#010202" stroke-linecap="square" x1="729.5" y1="2.5" x2="729.5" y2="6.5"/>
				<line id="_x31_61-741-2" fill="none" stroke="#010202" stroke-linecap="square" x1="739.5" y1="2.5" x2="739.5" y2="6.5"/>
				<line id="_x31_62-746-2" fill="none" stroke="#010202" stroke-linecap="square" x1="744.5" y1="2.5" x2="744.5" y2="6.5"/>
				<line id="_x31_63-751-2" fill="none" stroke="#010202" stroke-linecap="square" x1="749.5" y1="2.5" x2="749.5" y2="6.5"/>
				<line id="_x31_64-757-2" fill="none" stroke="#010202" stroke-linecap="square" x1="755.5" y1="2.5" x2="755.5" y2="6.5"/>
				<line id="_x31_65-762-2" fill="none" stroke="#010202" stroke-linecap="square" x1="760.5" y1="2.5" x2="760.5" y2="6.5"/>
				<line id="_x31_66-767-2" fill="none" stroke="#010202" stroke-linecap="square" x1="765.5" y1="2.5" x2="765.5" y2="6.5"/>
				<line id="_x31_67-772-2" fill="none" stroke="#010202" stroke-linecap="square" x1="770.5" y1="2.5" x2="770.5" y2="6.5"/>
				<line id="_x31_68-777-2" fill="none" stroke="#010202" stroke-linecap="square" x1="775.5" y1="2.5" x2="775.5" y2="6.5"/>
				<line id="_x31_69-783-2" fill="none" stroke="#010202" stroke-linecap="square" x1="781.5" y1="2.5" x2="781.5" y2="6.5"/>
				<line id="_x31_70-793-2" fill="none" stroke="#010202" stroke-linecap="square" x1="791.5" y1="2.5" x2="791.5" y2="6.5"/>
				<line id="_x31_71-798-2" fill="none" stroke="#010202" stroke-linecap="square" x1="796.5" y1="2.5" x2="796.5" y2="6.5"/>
				<line id="_x31_72-803-2" fill="none" stroke="#010202" stroke-linecap="square" x1="801.5" y1="2.5" x2="801.5" y2="6.5"/>
			</g>
		</g>
	</g>
	<text id="_x31_75-45-23" transform="matrix(1 0 0 1 43.5 32.5)" fill="#010202" font-family="'ArialMT'" font-size="11">V1</text>
	<text id="_x31_78-91-23" transform="matrix(1 0 0 1 89.5 32.5)" fill="#010202" font-family="'ArialMT'" font-size="11">V2</text>
	<text id="_x31_81-238-23" transform="matrix(1 0 0 1 236.5 32.5)" fill="#010202" font-family="'ArialMT'" font-size="11">V3</text>
	<text id="_x31_84-316-23" transform="matrix(1 0 0 1 314.5 32.5)" fill="#010202" font-family="'ArialMT'" font-size="11">V4</text>
	<text id="_x31_87-439-23" transform="matrix(1 0 0 1 437.5 32.5)" fill="#010202" font-family="'ArialMT'" font-size="11">V5</text>
	<text id="_x31_90-528-23" transform="matrix(1 0 0 1 526.5 32.5)" fill="#010202" font-family="'ArialMT'" font-size="11">V6</text>
	<text id="_x31_93-590-23" transform="matrix(1 0 0 1 588.5 32.5)" fill="#010202" font-family="'ArialMT'" font-size="11">V7</text>
	<text id="_x31_96-654-23" transform="matrix(1 0 0 1 652.5 32.5)" fill="#010202" font-family="'ArialMT'" font-size="11">V8</text>
	<g opacity="0.24">
		<g>
			<rect id="_x31_73-45-35" x="43.5" y="36.344" fill="#F3E600" stroke="#F3E600" width="16" height="127.908"/>
			<rect id="_x31_74-45-35" x="43.5" y="36.344" fill="none" stroke="#010202" width="16" height="127.908"/>
		</g>
		<g>
			<rect id="_x31_76-91-35" x="89.5" y="36.344" fill="#F3E600" stroke="#F3E600" width="37" height="127.908"/>
			<rect id="_x31_77-91-35" x="89.5" y="36.344" fill="none" stroke="#010202" width="37" height="127.908"/>
		</g>
		<g>
			<rect id="_x31_79-238-35" x="236.5" y="36.344" fill="#F3E600" stroke="#F3E600" width="31" height="127.908"/>
			<rect id="_x31_80-238-35" x="236.5" y="36.344" fill="none" stroke="#010202" width="31" height="127.908"/>
		</g>
		<g>
			<rect id="_x31_82-316-35" x="314.5" y="36.344" fill="#F3E600" stroke="#F3E600" width="31" height="127.908"/>
			<rect id="_x31_83-316-35" x="314.5" y="36.344" fill="none" stroke="#010202" width="31" height="127.908"/>
		</g>
		<g>
			<rect id="_x31_85-439-35" x="437.5" y="36.344" fill="#F3E600" stroke="#F3E600" width="16" height="127.908"/>
			<rect id="_x31_86-439-35" x="437.5" y="36.344" fill="none" stroke="#010202" width="16" height="127.908"/>
		</g>
		<g>
			<rect id="_x31_88-528-35" x="526.5" y="36.344" fill="#F3E600" stroke="#F3E600" width="19" height="127.908"/>
			<rect id="_x31_89-528-35" x="526.5" y="36.344" fill="none" stroke="#010202" width="19" height="127.908"/>
		</g>
		<g>
			<rect id="_x31_91-590-35" x="588.5" y="36.344" fill="#F3E600" stroke="#F3E600" width="21" height="127.908"/>
			<rect id="_x31_92-590-35" x="588.5" y="36.344" fill="none" stroke="#010202" width="21" height="127.908"/>
		</g>
		<g>
			<rect id="_x31_94-654-35" x="652.5" y="36.344" fill="#F3E600" stroke="#F3E600" width="28" height="127.908"/>
			<rect id="_x31_95-654-35" x="652.5" y="36.344" fill="none" stroke="#010202" width="28" height="127.908"/>
		</g>
		<g>
			<rect id="_x31_97-754-35" x="752.5" y="36.344" fill="#F3E600" stroke="#F3E600" width="16" height="127.908"/>
			<rect id="_x31_98-754-35" x="752.5" y="36.344" fill="none" stroke="#010202" width="16" height="127.908"/>
		</g>
	</g>
	<text id="_x31_99-754-23" transform="matrix(1 0 0 1 752.5 32.5)" fill="#010202" font-family="'ArialMT'" font-size="11">V9</text>
	<g>
		<g>
			<g>
				<line fill="none" stroke="#010202" stroke-miterlimit="10" x1="189" y1="51.5" x2="195" y2="51.5"/>
				
					<line fill="none" stroke="#010202" stroke-miterlimit="10" stroke-dasharray="11.5789,11.5789" x1="206.579" y1="51.5" x2="409.211" y2="51.5"/>
				<line fill="none" stroke="#010202" stroke-miterlimit="10" x1="415" y1="51.5" x2="421" y2="51.5"/>
			</g>
		</g>
		<g>
			<g>
				<g>
					<g>
						<g>
							
								<line id="_x32_32-186-63.5" fill="none" stroke="#010202" stroke-linecap="square" x1="184.5" y1="51.5" x2="193.5" y2="51.5"/>
							<rect id="_x32_33-186-60" x="184.5" y="48" fill="#2B4B9B" stroke="#2B4B9B" width="9" height="7"/>
							<rect id="_x32_34-186-60" x="184.5" y="48" fill="none" stroke="#010202" width="9" height="7"/>
						</g>
					</g>
				</g>
				<text id="_x32_35-186-48" transform="matrix(1 0 0 1 184.5 45)" fill="#010202" font-family="'ArialMT'" font-size="11">341F</text>
			</g>
			<g>
				<g>
					<g>
						<g>
							
								<line id="_x32_36-417-63.5" fill="none" stroke="#010202" stroke-linecap="square" x1="415.5" y1="51.5" x2="426.5" y2="51.5"/>
							<rect id="_x32_37-417-60" x="415.5" y="48" fill="#2B4B9B" stroke="#2B4B9B" width="11" height="7"/>
							<rect id="_x32_38-417-60" x="415.5" y="48" fill="none" stroke="#010202" width="11" height="7"/>
						</g>
					</g>
				</g>
				<text id="_x32_39-417-48" transform="matrix(1 0 0 1 415.5 45)" fill="#010202" font-family="'ArialMT'" font-size="11">805R</text>
			</g>
		</g>
	</g>
	<g>
		<g>
			<g>
				<line fill="none" stroke="#010202" stroke-miterlimit="10" x1="281" y1="103.666" x2="287" y2="103.666"/>
				
					<line fill="none" stroke="#010202" stroke-miterlimit="10" stroke-dasharray="11.6364,11.6364" x1="298.636" y1="103.666" x2="409.182" y2="103.666"/>
				<line fill="none" stroke="#010202" stroke-miterlimit="10" x1="415" y1="103.666" x2="421" y2="103.666"/>
			</g>
		</g>
		<g>
			<g>
				<g>
					<g>
						<g>
							
								<line id="_x32_04-418-84.5" fill="none" stroke="#010202" stroke-linecap="square" x1="416.5" y1="103.666" x2="426.5" y2="103.666"/>
							<rect id="_x32_05-418-81" x="416.5" y="100.166" fill="#2B4B9B" stroke="#2B4B9B" width="10" height="7"/>
							<rect id="_x32_06-418-81" x="416.5" y="100.166" fill="none" stroke="#010202" width="10" height="7"/>
						</g>
					</g>
				</g>
				<text id="_x32_07-418-69" transform="matrix(1 0 0 1 416.5 97.167)" fill="#010202" font-family="'ArialMT'" font-size="11">806R</text>
			</g>
			<g>
				<g>
					<g>
						<g>
							
								<line id="_x32_08-277-84.5" fill="none" stroke="#010202" stroke-linecap="square" x1="275.5" y1="103.666" x2="285.5" y2="103.666"/>
							<rect id="_x32_09-277-81" x="275.5" y="100.166" fill="#2B4B9B" stroke="#2B4B9B" width="10" height="7"/>
							<rect id="_x32_10-277-81" x="275.5" y="100.166" fill="none" stroke="#010202" width="10" height="7"/>
						</g>
					</g>
				</g>
				<text id="_x32_11-277-69" transform="matrix(1 0 0 1 275.5 97.167)" fill="#010202" font-family="'ArialMT'" font-size="11">515F</text>
			</g>
		</g>
	</g>
	<g>
		<g>
			<g>
				<line fill="none" stroke="#010202" stroke-miterlimit="10" x1="280" y1="77.583" x2="286" y2="77.583"/>
				
					<line fill="none" stroke="#010202" stroke-miterlimit="10" stroke-dasharray="12.7667,12.7667" x1="298.767" y1="77.583" x2="471.116" y2="77.583"/>
				<line fill="none" stroke="#010202" stroke-miterlimit="10" x1="477.5" y1="77.583" x2="483.5" y2="77.583"/>
			</g>
		</g>
		<g>
			<g>
				<g>
					<g>
						<g>
							
								<line id="_x32_00-277-63.5" fill="none" stroke="#010202" stroke-linecap="square" x1="275.5" y1="77.583" x2="285.5" y2="77.583"/>
							<rect id="_x32_01-277-60" x="275.5" y="74.083" fill="#2B4B9B" stroke="#2B4B9B" width="10" height="7"/>
							<rect id="_x32_02-277-60" x="275.5" y="74.083" fill="none" stroke="#010202" width="10" height="7"/>
						</g>
					</g>
				</g>
				<text id="_x32_03-277-48" transform="matrix(1 0 0 1 275.5 71.083)" fill="#010202" font-family="'ArialMT'" font-size="11">515F</text>
			</g>
			<g>
				<g>
					<g>
						<g>
							
								<line id="_x32_12-480-63.5" fill="none" stroke="#010202" stroke-linecap="square" x1="478.5" y1="77.583" x2="488.5" y2="77.583"/>
							<rect id="_x32_13-480-60" x="478.5" y="74.083" fill="#2B4B9B" stroke="#2B4B9B" width="10" height="7"/>
							<rect id="_x32_14-480-60" x="478.5" y="74.083" fill="none" stroke="#010202" width="10" height="7"/>
						</g>
					</g>
				</g>
				<text id="_x32_15-480-48" transform="matrix(1 0 0 1 478.5 71.083)" fill="#010202" font-family="'ArialMT'" font-size="11">926R</text>
			</g>
		</g>
	</g>
	
		<line opacity="0.6" fill="none" stroke="#010202" stroke-width="0.5" enable-background="new    " x1="0.5" y1="58.322" x2="818.5" y2="58.322"/>
	
		<line opacity="0.6" fill="none" stroke="#010202" stroke-width="0.5" enable-background="new    " x1="0.5" y1="84.405" x2="818.5" y2="84.405"/>
	<g>
		<g>
			<g>
				<line fill="none" stroke="#010202" stroke-miterlimit="10" x1="18.5" y1="129.75" x2="24.5" y2="129.75"/>
				
					<line fill="none" stroke="#010202" stroke-miterlimit="10" stroke-dasharray="12,12" x1="36.5" y1="129.75" x2="270.5" y2="129.75"/>
				<line fill="none" stroke="#010202" stroke-miterlimit="10" x1="276.5" y1="129.75" x2="282.5" y2="129.75"/>
			</g>
		</g>
		<g>
			<g>
				<g>
					<g>
						<g>
							
								<line id="_x32_16-14-63.5" fill="none" stroke="#010202" stroke-linecap="square" x1="12.5" y1="129.75" x2="22.5" y2="129.75"/>
							<rect id="_x32_17-14-60" x="12.5" y="126.25" fill="#2B4B9B" stroke="#2B4B9B" width="10" height="7"/>
							<rect id="_x32_18-14-60" x="12.5" y="126.25" fill="none" stroke="#010202" width="10" height="7"/>
						</g>
					</g>
				</g>
				<text id="_x32_19-14-48" transform="matrix(1 0 0 1 12.5 123.25)" fill="#010202" font-family="'ArialMT'" font-size="11">27F</text>
			</g>
			<g>
				<g>
					<g>
						<g>
							
								<line id="_x32_20-278-126.5" fill="none" stroke="#010202" stroke-linecap="square" x1="276.5" y1="129.75" x2="285.5" y2="129.75"/>
							<rect id="_x32_21-278-123" x="276.5" y="126.25" fill="#2B4B9B" stroke="#2B4B9B" width="9" height="7"/>
							<rect id="_x32_22-278-123" x="276.5" y="126.25" fill="none" stroke="#010202" width="9" height="7"/>
						</g>
					</g>
				</g>
				<text id="_x32_23-278-111" transform="matrix(1 0 0 1 276.5 123.25)" fill="#010202" font-family="'ArialMT'" font-size="11">534R</text>
			</g>
		</g>
	</g>
	
		<line opacity="0.6" fill="none" stroke="#010202" stroke-width="0.5" enable-background="new    " x1="-0.5" y1="110.488" x2="817.5" y2="110.488"/>
	<g>
		<g>
			<g>
				<line fill="none" stroke="#010202" stroke-miterlimit="10" x1="16.5" y1="155.833" x2="20.948" y2="155.833"/>
				
					<line fill="none" stroke="#010202" stroke-miterlimit="10" stroke-dasharray="11.5789,11.5789" x1="29.533" y1="155.833" x2="179.76" y2="155.833"/>
				<line fill="none" stroke="#010202" stroke-miterlimit="10" x1="184.052" y1="155.833" x2="188.5" y2="155.833"/>
			</g>
		</g>
		<g>
			<g>
				<g>
					<g>
						<g>
							
								<line id="_x32_00-14-63.5" fill="none" stroke="#010202" stroke-linecap="square" x1="12.5" y1="155.833" x2="22.5" y2="155.833"/>
							<rect id="_x32_01-14-60" x="12.5" y="152.333" fill="#2B4B9B" stroke="#2B4B9B" width="10" height="7"/>
							<rect id="_x32_02-14-60" x="12.5" y="152.333" fill="none" stroke="#010202" width="10" height="7"/>
						</g>
					</g>
				</g>
				<text id="_x32_03-14-48" transform="matrix(1 0 0 1 12.5 149.333)" fill="#010202" font-family="'ArialMT'" font-size="11">28F</text>
			</g>
			<g>
				<g>
					<g>
						<g>
							
								<line id="_x32_04-185-63.5" fill="none" stroke="#010202" stroke-linecap="square" x1="183.5" y1="155.833" x2="193.5" y2="155.833"/>
							<rect id="_x32_05-185-60" x="183.5" y="152.333" fill="#2B4B9B" stroke="#2B4B9B" width="10" height="7"/>
							<rect id="_x32_06-185-60" x="183.5" y="152.333" fill="none" stroke="#010202" width="10" height="7"/>
						</g>
					</g>
				</g>
				<text id="_x32_07-185-48" transform="matrix(1 0 0 1 183.5 149.333)" fill="#010202" font-family="'ArialMT'" font-size="11">388R</text>
			</g>
		</g>
	</g>
	
		<line opacity="0.6" fill="none" stroke="#010202" stroke-width="0.5" enable-background="new    " x1="-0.5" y1="136.571" x2="817.5" y2="136.571"/>
</g>
</svg>
