<?xml version="1.0" encoding="utf-8"?>
<!-- Generator: Adobe Illustrator 15.0.0, SVG Export Plug-In . SVG Version: 6.00 Build 0)  -->
<!DOCTYPE svg PUBLIC "-//W3C//DTD SVG 1.1//EN" "http://www.w3.org/Graphics/SVG/1.1/DTD/svg11.dtd">
<svg version="1.1" id="Layer_1" xmlns:svg="http://www.w3.org/2000/svg"
	 xmlns="http://www.w3.org/2000/svg" xmlns:xlink="http://www.w3.org/1999/xlink" x="0px" y="0px" width="820px" height="134px"
	 viewBox="0 0 820 134" enable-background="new 0 0 820 134" xml:space="preserve">
<g>
	<g>
		<g>
			<line id="_x31_-10-4" fill="none" stroke="#000000" stroke-linecap="square" x1="10" y1="4" x2="810" y2="4"/>
			<line id="_x32_-10-4" fill="none" stroke="#000000" stroke-linecap="square" x1="10" y1="4" x2="14" y2="0"/>
			<line id="_x33_-10-4" fill="none" stroke="#000000" stroke-linecap="square" x1="10" y1="4" x2="14" y2="8"/>
			<line id="_x34_-810-4" fill="none" stroke="#000000" stroke-linecap="square" x1="810" y1="4" x2="806" y2="0"/>
			<line id="_x35_-810-4" fill="none" stroke="#000000" stroke-linecap="square" x1="810" y1="4" x2="806" y2="8"/>
			<line id="_x36_-61-0" fill="none" stroke="#000000" stroke-linecap="square" x1="61" y1="0" x2="61" y2="8"/>
			<text id="_x37_-49-7" transform="matrix(1 0 0 1 49 16)" font-family="'ArialMT'" font-size="11">0.1k</text>
			<line id="_x38_-113-0" fill="none" stroke="#000000" stroke-linecap="square" x1="113" y1="0" x2="113" y2="8"/>
			<text id="_x39_-101-7" transform="matrix(1 0 0 1 101 16)" font-family="'ArialMT'" font-size="11">0.2k</text>
			<line id="_x31_0-165-0" fill="none" stroke="#000000" stroke-linecap="square" x1="165" y1="0" x2="165" y2="8"/>
			<text id="_x31_1-153-7" transform="matrix(1 0 0 1 153 16)" font-family="'ArialMT'" font-size="11">0.3k</text>
			<line id="_x31_2-217-0" fill="none" stroke="#000000" stroke-linecap="square" x1="217" y1="0" x2="217" y2="8"/>
			<text id="_x31_3-205-7" transform="matrix(1 0 0 1 205 16)" font-family="'ArialMT'" font-size="11">0.4k</text>
			<line id="_x31_4-269-0" fill="none" stroke="#000000" stroke-linecap="square" x1="269" y1="0" x2="269" y2="8"/>
			<text id="_x31_5-257-7" transform="matrix(1 0 0 1 257 16)" font-family="'ArialMT'" font-size="11">0.5k</text>
			<line id="_x31_6-321-0" fill="none" stroke="#000000" stroke-linecap="square" x1="321" y1="0" x2="321" y2="8"/>
			<text id="_x31_7-309-7" transform="matrix(1 0 0 1 309 16)" font-family="'ArialMT'" font-size="11">0.6k</text>
			<line id="_x31_8-373-0" fill="none" stroke="#000000" stroke-linecap="square" x1="373" y1="0" x2="373" y2="8"/>
			<text id="_x31_9-361-7" transform="matrix(1 0 0 1 361 16)" font-family="'ArialMT'" font-size="11">0.7k</text>
			<line id="_x32_0-425-0" fill="none" stroke="#000000" stroke-linecap="square" x1="425" y1="0" x2="425" y2="8"/>
			<text id="_x32_1-413-7" transform="matrix(1 0 0 1 413 16)" font-family="'ArialMT'" font-size="11">0.8k</text>
			<line id="_x32_2-476-0" fill="none" stroke="#000000" stroke-linecap="square" x1="476" y1="0" x2="476" y2="8"/>
			<text id="_x32_3-464-7" transform="matrix(1 0 0 1 464 16)" font-family="'ArialMT'" font-size="11">0.9k</text>
			<line id="_x32_4-528-0" fill="none" stroke="#000000" stroke-linecap="square" x1="528" y1="0" x2="528" y2="8"/>
			<text id="_x32_5-522-7" transform="matrix(1 0 0 1 522 16)" font-family="'ArialMT'" font-size="11">1k</text>
			<line id="_x32_6-580-0" fill="none" stroke="#000000" stroke-linecap="square" x1="580" y1="0" x2="580" y2="8"/>
			<text id="_x32_7-568-7" transform="matrix(1 0 0 1 568 16)" font-family="'ArialMT'" font-size="11">1.1k</text>
			<line id="_x32_8-632-0" fill="none" stroke="#000000" stroke-linecap="square" x1="632" y1="0" x2="632" y2="8"/>
			<text id="_x32_9-620-7" transform="matrix(1 0 0 1 620 16)" font-family="'ArialMT'" font-size="11">1.2k</text>
			<line id="_x33_0-684-0" fill="none" stroke="#000000" stroke-linecap="square" x1="684" y1="0" x2="684" y2="8"/>
			<text id="_x33_1-672-7" transform="matrix(1 0 0 1 672 16)" font-family="'ArialMT'" font-size="11">1.3k</text>
			<line id="_x33_2-736-0" fill="none" stroke="#000000" stroke-linecap="square" x1="736" y1="0" x2="736" y2="8"/>
			<text id="_x33_3-724-7" transform="matrix(1 0 0 1 724 16)" font-family="'ArialMT'" font-size="11">1.4k</text>
			<line id="_x33_4-788-0" fill="none" stroke="#000000" stroke-linecap="square" x1="788" y1="0" x2="788" y2="8"/>
			<text id="_x33_5-776-7" transform="matrix(1 0 0 1 776 16)" font-family="'ArialMT'" font-size="11">1.5k</text>
			<line id="_x33_6-20-2" fill="none" stroke="#000000" stroke-linecap="square" x1="20" y1="2" x2="20" y2="6"/>
			<line id="_x33_7-25-2" fill="none" stroke="#000000" stroke-linecap="square" x1="25" y1="2" x2="25" y2="6"/>
			<line id="_x33_8-30-2" fill="none" stroke="#000000" stroke-linecap="square" x1="30" y1="2" x2="30" y2="6"/>
			<line id="_x33_9-35-2" fill="none" stroke="#000000" stroke-linecap="square" x1="35" y1="2" x2="35" y2="6"/>
			<line id="_x34_0-41-2" fill="none" stroke="#000000" stroke-linecap="square" x1="41" y1="2" x2="41" y2="6"/>
			<line id="_x34_1-46-2" fill="none" stroke="#000000" stroke-linecap="square" x1="46" y1="2" x2="46" y2="6"/>
			<line id="_x34_2-51-2" fill="none" stroke="#000000" stroke-linecap="square" x1="51" y1="2" x2="51" y2="6"/>
			<line id="_x34_3-56-2" fill="none" stroke="#000000" stroke-linecap="square" x1="56" y1="2" x2="56" y2="6"/>
			<line id="_x34_4-67-2" fill="none" stroke="#000000" stroke-linecap="square" x1="67" y1="2" x2="67" y2="6"/>
			<line id="_x34_5-72-2" fill="none" stroke="#000000" stroke-linecap="square" x1="72" y1="2" x2="72" y2="6"/>
			<line id="_x34_6-77-2" fill="none" stroke="#000000" stroke-linecap="square" x1="77" y1="2" x2="77" y2="6"/>
			<line id="_x34_7-82-2" fill="none" stroke="#000000" stroke-linecap="square" x1="82" y1="2" x2="82" y2="6"/>
			<line id="_x34_8-87-2" fill="none" stroke="#000000" stroke-linecap="square" x1="87" y1="2" x2="87" y2="6"/>
			<line id="_x34_9-92-2" fill="none" stroke="#000000" stroke-linecap="square" x1="92" y1="2" x2="92" y2="6"/>
			<line id="_x35_0-98-2" fill="none" stroke="#000000" stroke-linecap="square" x1="98" y1="2" x2="98" y2="6"/>
			<line id="_x35_1-103-2" fill="none" stroke="#000000" stroke-linecap="square" x1="103" y1="2" x2="103" y2="6"/>
			<line id="_x35_2-108-2" fill="none" stroke="#000000" stroke-linecap="square" x1="108" y1="2" x2="108" y2="6"/>
			<line id="_x35_3-118-2" fill="none" stroke="#000000" stroke-linecap="square" x1="118" y1="2" x2="118" y2="6"/>
			<line id="_x35_4-124-2" fill="none" stroke="#000000" stroke-linecap="square" x1="124" y1="2" x2="124" y2="6"/>
			<line id="_x35_5-129-2" fill="none" stroke="#000000" stroke-linecap="square" x1="129" y1="2" x2="129" y2="6"/>
			<line id="_x35_6-134-2" fill="none" stroke="#000000" stroke-linecap="square" x1="134" y1="2" x2="134" y2="6"/>
			<line id="_x35_7-139-2" fill="none" stroke="#000000" stroke-linecap="square" x1="139" y1="2" x2="139" y2="6"/>
			<line id="_x35_8-144-2" fill="none" stroke="#000000" stroke-linecap="square" x1="144" y1="2" x2="144" y2="6"/>
			<line id="_x35_9-150-2" fill="none" stroke="#000000" stroke-linecap="square" x1="150" y1="2" x2="150" y2="6"/>
			<line id="_x36_0-155-2" fill="none" stroke="#000000" stroke-linecap="square" x1="155" y1="2" x2="155" y2="6"/>
			<line id="_x36_1-160-2" fill="none" stroke="#000000" stroke-linecap="square" x1="160" y1="2" x2="160" y2="6"/>
			<line id="_x36_2-170-2" fill="none" stroke="#000000" stroke-linecap="square" x1="170" y1="2" x2="170" y2="6"/>
			<line id="_x36_3-175-2" fill="none" stroke="#000000" stroke-linecap="square" x1="175" y1="2" x2="175" y2="6"/>
			<line id="_x36_4-181-2" fill="none" stroke="#000000" stroke-linecap="square" x1="181" y1="2" x2="181" y2="6"/>
			<line id="_x36_5-186-2" fill="none" stroke="#000000" stroke-linecap="square" x1="186" y1="2" x2="186" y2="6"/>
			<line id="_x36_6-191-2" fill="none" stroke="#000000" stroke-linecap="square" x1="191" y1="2" x2="191" y2="6"/>
			<line id="_x36_7-196-2" fill="none" stroke="#000000" stroke-linecap="square" x1="196" y1="2" x2="196" y2="6"/>
			<line id="_x36_8-201-2" fill="none" stroke="#000000" stroke-linecap="square" x1="201" y1="2" x2="201" y2="6"/>
			<line id="_x36_9-207-2" fill="none" stroke="#000000" stroke-linecap="square" x1="207" y1="2" x2="207" y2="6"/>
			<line id="_x37_0-212-2" fill="none" stroke="#000000" stroke-linecap="square" x1="212" y1="2" x2="212" y2="6"/>
			<line id="_x37_1-222-2" fill="none" stroke="#000000" stroke-linecap="square" x1="222" y1="2" x2="222" y2="6"/>
			<line id="_x37_2-227-2" fill="none" stroke="#000000" stroke-linecap="square" x1="227" y1="2" x2="227" y2="6"/>
			<line id="_x37_3-233-2" fill="none" stroke="#000000" stroke-linecap="square" x1="233" y1="2" x2="233" y2="6"/>
			<line id="_x37_4-238-2" fill="none" stroke="#000000" stroke-linecap="square" x1="238" y1="2" x2="238" y2="6"/>
			<line id="_x37_5-243-2" fill="none" stroke="#000000" stroke-linecap="square" x1="243" y1="2" x2="243" y2="6"/>
			<line id="_x37_6-248-2" fill="none" stroke="#000000" stroke-linecap="square" x1="248" y1="2" x2="248" y2="6"/>
			<line id="_x37_7-253-2" fill="none" stroke="#000000" stroke-linecap="square" x1="253" y1="2" x2="253" y2="6"/>
			<line id="_x37_8-259-2" fill="none" stroke="#000000" stroke-linecap="square" x1="259" y1="2" x2="259" y2="6"/>
			<line id="_x37_9-264-2" fill="none" stroke="#000000" stroke-linecap="square" x1="264" y1="2" x2="264" y2="6"/>
			<line id="_x38_0-274-2" fill="none" stroke="#000000" stroke-linecap="square" x1="274" y1="2" x2="274" y2="6"/>
			<line id="_x38_1-279-2" fill="none" stroke="#000000" stroke-linecap="square" x1="279" y1="2" x2="279" y2="6"/>
			<line id="_x38_2-284-2" fill="none" stroke="#000000" stroke-linecap="square" x1="284" y1="2" x2="284" y2="6"/>
			<line id="_x38_3-290-2" fill="none" stroke="#000000" stroke-linecap="square" x1="290" y1="2" x2="290" y2="6"/>
			<line id="_x38_4-295-2" fill="none" stroke="#000000" stroke-linecap="square" x1="295" y1="2" x2="295" y2="6"/>
			<line id="_x38_5-300-2" fill="none" stroke="#000000" stroke-linecap="square" x1="300" y1="2" x2="300" y2="6"/>
			<line id="_x38_6-305-2" fill="none" stroke="#000000" stroke-linecap="square" x1="305" y1="2" x2="305" y2="6"/>
			<line id="_x38_7-310-2" fill="none" stroke="#000000" stroke-linecap="square" x1="310" y1="2" x2="310" y2="6"/>
			<line id="_x38_8-316-2" fill="none" stroke="#000000" stroke-linecap="square" x1="316" y1="2" x2="316" y2="6"/>
			<line id="_x38_9-326-2" fill="none" stroke="#000000" stroke-linecap="square" x1="326" y1="2" x2="326" y2="6"/>
			<line id="_x39_0-331-2" fill="none" stroke="#000000" stroke-linecap="square" x1="331" y1="2" x2="331" y2="6"/>
			<line id="_x39_1-336-2" fill="none" stroke="#000000" stroke-linecap="square" x1="336" y1="2" x2="336" y2="6"/>
			<line id="_x39_2-342-2" fill="none" stroke="#000000" stroke-linecap="square" x1="342" y1="2" x2="342" y2="6"/>
			<line id="_x39_3-347-2" fill="none" stroke="#000000" stroke-linecap="square" x1="347" y1="2" x2="347" y2="6"/>
			<line id="_x39_4-352-2" fill="none" stroke="#000000" stroke-linecap="square" x1="352" y1="2" x2="352" y2="6"/>
			<line id="_x39_5-357-2" fill="none" stroke="#000000" stroke-linecap="square" x1="357" y1="2" x2="357" y2="6"/>
			<line id="_x39_6-362-2" fill="none" stroke="#000000" stroke-linecap="square" x1="362" y1="2" x2="362" y2="6"/>
			<line id="_x39_7-367-2" fill="none" stroke="#000000" stroke-linecap="square" x1="367" y1="2" x2="367" y2="6"/>
			<line id="_x39_8-378-2" fill="none" stroke="#000000" stroke-linecap="square" x1="378" y1="2" x2="378" y2="6"/>
			<line id="_x39_9-383-2" fill="none" stroke="#000000" stroke-linecap="square" x1="383" y1="2" x2="383" y2="6"/>
			<line id="_x31_00-388-2" fill="none" stroke="#000000" stroke-linecap="square" x1="388" y1="2" x2="388" y2="6"/>
			<line id="_x31_01-393-2" fill="none" stroke="#000000" stroke-linecap="square" x1="393" y1="2" x2="393" y2="6"/>
			<line id="_x31_02-399-2" fill="none" stroke="#000000" stroke-linecap="square" x1="399" y1="2" x2="399" y2="6"/>
			<line id="_x31_03-404-2" fill="none" stroke="#000000" stroke-linecap="square" x1="404" y1="2" x2="404" y2="6"/>
			<line id="_x31_04-409-2" fill="none" stroke="#000000" stroke-linecap="square" x1="409" y1="2" x2="409" y2="6"/>
			<line id="_x31_05-414-2" fill="none" stroke="#000000" stroke-linecap="square" x1="414" y1="2" x2="414" y2="6"/>
			<line id="_x31_06-419-2" fill="none" stroke="#000000" stroke-linecap="square" x1="419" y1="2" x2="419" y2="6"/>
			<line id="_x31_07-430-2" fill="none" stroke="#000000" stroke-linecap="square" x1="430" y1="2" x2="430" y2="6"/>
			<line id="_x31_08-435-2" fill="none" stroke="#000000" stroke-linecap="square" x1="435" y1="2" x2="435" y2="6"/>
			<line id="_x31_09-440-2" fill="none" stroke="#000000" stroke-linecap="square" x1="440" y1="2" x2="440" y2="6"/>
			<line id="_x31_10-445-2" fill="none" stroke="#000000" stroke-linecap="square" x1="445" y1="2" x2="445" y2="6"/>
			<line id="_x31_11-450-2" fill="none" stroke="#000000" stroke-linecap="square" x1="450" y1="2" x2="450" y2="6"/>
			<line id="_x31_12-456-2" fill="none" stroke="#000000" stroke-linecap="square" x1="456" y1="2" x2="456" y2="6"/>
			<line id="_x31_13-461-2" fill="none" stroke="#000000" stroke-linecap="square" x1="461" y1="2" x2="461" y2="6"/>
			<line id="_x31_14-466-2" fill="none" stroke="#000000" stroke-linecap="square" x1="466" y1="2" x2="466" y2="6"/>
			<line id="_x31_15-471-2" fill="none" stroke="#000000" stroke-linecap="square" x1="471" y1="2" x2="471" y2="6"/>
			<line id="_x31_16-482-2" fill="none" stroke="#000000" stroke-linecap="square" x1="482" y1="2" x2="482" y2="6"/>
			<line id="_x31_17-487-2" fill="none" stroke="#000000" stroke-linecap="square" x1="487" y1="2" x2="487" y2="6"/>
			<line id="_x31_18-492-2" fill="none" stroke="#000000" stroke-linecap="square" x1="492" y1="2" x2="492" y2="6"/>
			<line id="_x31_19-497-2" fill="none" stroke="#000000" stroke-linecap="square" x1="497" y1="2" x2="497" y2="6"/>
			<line id="_x31_20-502-2" fill="none" stroke="#000000" stroke-linecap="square" x1="502" y1="2" x2="502" y2="6"/>
			<line id="_x31_21-508-2" fill="none" stroke="#000000" stroke-linecap="square" x1="508" y1="2" x2="508" y2="6"/>
			<line id="_x31_22-513-2" fill="none" stroke="#000000" stroke-linecap="square" x1="513" y1="2" x2="513" y2="6"/>
			<line id="_x31_23-518-2" fill="none" stroke="#000000" stroke-linecap="square" x1="518" y1="2" x2="518" y2="6"/>
			<line id="_x31_24-523-2" fill="none" stroke="#000000" stroke-linecap="square" x1="523" y1="2" x2="523" y2="6"/>
			<line id="_x31_25-533-2" fill="none" stroke="#000000" stroke-linecap="square" x1="533" y1="2" x2="533" y2="6"/>
			<line id="_x31_26-539-2" fill="none" stroke="#000000" stroke-linecap="square" x1="539" y1="2" x2="539" y2="6"/>
			<line id="_x31_27-544-2" fill="none" stroke="#000000" stroke-linecap="square" x1="544" y1="2" x2="544" y2="6"/>
			<line id="_x31_28-549-2" fill="none" stroke="#000000" stroke-linecap="square" x1="549" y1="2" x2="549" y2="6"/>
			<line id="_x31_29-554-2" fill="none" stroke="#000000" stroke-linecap="square" x1="554" y1="2" x2="554" y2="6"/>
			<line id="_x31_30-559-2" fill="none" stroke="#000000" stroke-linecap="square" x1="559" y1="2" x2="559" y2="6"/>
			<line id="_x31_31-565-2" fill="none" stroke="#000000" stroke-linecap="square" x1="565" y1="2" x2="565" y2="6"/>
			<line id="_x31_32-570-2" fill="none" stroke="#000000" stroke-linecap="square" x1="570" y1="2" x2="570" y2="6"/>
			<line id="_x31_33-575-2" fill="none" stroke="#000000" stroke-linecap="square" x1="575" y1="2" x2="575" y2="6"/>
			<line id="_x31_34-585-2" fill="none" stroke="#000000" stroke-linecap="square" x1="585" y1="2" x2="585" y2="6"/>
			<line id="_x31_35-591-2" fill="none" stroke="#000000" stroke-linecap="square" x1="591" y1="2" x2="591" y2="6"/>
			<line id="_x31_36-596-2" fill="none" stroke="#000000" stroke-linecap="square" x1="596" y1="2" x2="596" y2="6"/>
			<line id="_x31_37-601-2" fill="none" stroke="#000000" stroke-linecap="square" x1="601" y1="2" x2="601" y2="6"/>
			<line id="_x31_38-606-2" fill="none" stroke="#000000" stroke-linecap="square" x1="606" y1="2" x2="606" y2="6"/>
			<line id="_x31_39-611-2" fill="none" stroke="#000000" stroke-linecap="square" x1="611" y1="2" x2="611" y2="6"/>
			<line id="_x31_40-616-2" fill="none" stroke="#000000" stroke-linecap="square" x1="616" y1="2" x2="616" y2="6"/>
			<line id="_x31_41-622-2" fill="none" stroke="#000000" stroke-linecap="square" x1="622" y1="2" x2="622" y2="6"/>
			<line id="_x31_42-627-2" fill="none" stroke="#000000" stroke-linecap="square" x1="627" y1="2" x2="627" y2="6"/>
			<line id="_x31_43-637-2" fill="none" stroke="#000000" stroke-linecap="square" x1="637" y1="2" x2="637" y2="6"/>
			<line id="_x31_44-642-2" fill="none" stroke="#000000" stroke-linecap="square" x1="642" y1="2" x2="642" y2="6"/>
			<line id="_x31_45-648-2" fill="none" stroke="#000000" stroke-linecap="square" x1="648" y1="2" x2="648" y2="6"/>
			<line id="_x31_46-653-2" fill="none" stroke="#000000" stroke-linecap="square" x1="653" y1="2" x2="653" y2="6"/>
			<line id="_x31_47-658-2" fill="none" stroke="#000000" stroke-linecap="square" x1="658" y1="2" x2="658" y2="6"/>
			<line id="_x31_48-663-2" fill="none" stroke="#000000" stroke-linecap="square" x1="663" y1="2" x2="663" y2="6"/>
			<line id="_x31_49-668-2" fill="none" stroke="#000000" stroke-linecap="square" x1="668" y1="2" x2="668" y2="6"/>
			<line id="_x31_50-674-2" fill="none" stroke="#000000" stroke-linecap="square" x1="674" y1="2" x2="674" y2="6"/>
			<line id="_x31_51-679-2" fill="none" stroke="#000000" stroke-linecap="square" x1="679" y1="2" x2="679" y2="6"/>
			<line id="_x31_52-689-2" fill="none" stroke="#000000" stroke-linecap="square" x1="689" y1="2" x2="689" y2="6"/>
			<line id="_x31_53-694-2" fill="none" stroke="#000000" stroke-linecap="square" x1="694" y1="2" x2="694" y2="6"/>
			<line id="_x31_54-699-2" fill="none" stroke="#000000" stroke-linecap="square" x1="699" y1="2" x2="699" y2="6"/>
			<line id="_x31_55-705-2" fill="none" stroke="#000000" stroke-linecap="square" x1="705" y1="2" x2="705" y2="6"/>
			<line id="_x31_56-710-2" fill="none" stroke="#000000" stroke-linecap="square" x1="710" y1="2" x2="710" y2="6"/>
			<line id="_x31_57-715-2" fill="none" stroke="#000000" stroke-linecap="square" x1="715" y1="2" x2="715" y2="6"/>
			<line id="_x31_58-720-2" fill="none" stroke="#000000" stroke-linecap="square" x1="720" y1="2" x2="720" y2="6"/>
			<line id="_x31_59-725-2" fill="none" stroke="#000000" stroke-linecap="square" x1="725" y1="2" x2="725" y2="6"/>
			<line id="_x31_60-731-2" fill="none" stroke="#000000" stroke-linecap="square" x1="731" y1="2" x2="731" y2="6"/>
			<line id="_x31_61-741-2" fill="none" stroke="#000000" stroke-linecap="square" x1="741" y1="2" x2="741" y2="6"/>
			<line id="_x31_62-746-2" fill="none" stroke="#000000" stroke-linecap="square" x1="746" y1="2" x2="746" y2="6"/>
			<line id="_x31_63-751-2" fill="none" stroke="#000000" stroke-linecap="square" x1="751" y1="2" x2="751" y2="6"/>
			<line id="_x31_64-757-2" fill="none" stroke="#000000" stroke-linecap="square" x1="757" y1="2" x2="757" y2="6"/>
			<line id="_x31_65-762-2" fill="none" stroke="#000000" stroke-linecap="square" x1="762" y1="2" x2="762" y2="6"/>
			<line id="_x31_66-767-2" fill="none" stroke="#000000" stroke-linecap="square" x1="767" y1="2" x2="767" y2="6"/>
			<line id="_x31_67-772-2" fill="none" stroke="#000000" stroke-linecap="square" x1="772" y1="2" x2="772" y2="6"/>
			<line id="_x31_68-777-2" fill="none" stroke="#000000" stroke-linecap="square" x1="777" y1="2" x2="777" y2="6"/>
			<line id="_x31_69-783-2" fill="none" stroke="#000000" stroke-linecap="square" x1="783" y1="2" x2="783" y2="6"/>
			<line id="_x31_70-793-2" fill="none" stroke="#000000" stroke-linecap="square" x1="793" y1="2" x2="793" y2="6"/>
			<line id="_x31_71-798-2" fill="none" stroke="#000000" stroke-linecap="square" x1="798" y1="2" x2="798" y2="6"/>
			<line id="_x31_72-803-2" fill="none" stroke="#000000" stroke-linecap="square" x1="803" y1="2" x2="803" y2="6"/>
		</g>
	</g>
</g>
<text id="_x31_75-45-23" transform="matrix(1 0 0 1 45 32)" font-family="'ArialMT'" font-size="11">V1</text>
<text id="_x31_78-91-23" transform="matrix(1 0 0 1 91 32)" font-family="'ArialMT'" font-size="11">V2</text>
<text id="_x31_81-238-23" transform="matrix(1 0 0 1 238 32)" font-family="'ArialMT'" font-size="11">V3</text>
<text id="_x31_84-316-23" transform="matrix(1 0 0 1 316 32)" font-family="'ArialMT'" font-size="11">V4</text>
<text id="_x31_87-439-23" transform="matrix(1 0 0 1 439 32)" font-family="'ArialMT'" font-size="11">V5</text>
<text id="_x31_90-528-23" transform="matrix(1 0 0 1 528 32)" font-family="'ArialMT'" font-size="11">V6</text>
<text id="_x31_93-590-23" transform="matrix(1 0 0 1 590 32)" font-family="'ArialMT'" font-size="11">V7</text>
<text id="_x31_96-654-23" transform="matrix(1 0 0 1 654 32)" font-family="'ArialMT'" font-size="11">V8</text>
<g opacity="0.24">
	<g>
		<rect id="_x31_73-45-35" x="45" y="35.844" fill="#FFFF00" stroke="#FFFF00" width="16" height="74.312"/>
		<rect id="_x31_74-45-35" x="45" y="35.844" fill="none" stroke="#000000" width="16" height="74.312"/>
	</g>
	<g>
		<rect id="_x31_76-91-35" x="91" y="35.844" fill="#FFFF00" stroke="#FFFF00" width="37" height="74.312"/>
		<rect id="_x31_77-91-35" x="91" y="35.844" fill="none" stroke="#000000" width="37" height="74.312"/>
	</g>
	<g>
		<rect id="_x31_79-238-35" x="238" y="35.844" fill="#FFFF00" stroke="#FFFF00" width="31" height="74.312"/>
		<rect id="_x31_80-238-35" x="238" y="35.844" fill="none" stroke="#000000" width="31" height="74.312"/>
	</g>
	<g>
		<rect id="_x31_82-316-35" x="316" y="35.844" fill="#FFFF00" stroke="#FFFF00" width="31" height="74.312"/>
		<rect id="_x31_83-316-35" x="316" y="35.844" fill="none" stroke="#000000" width="31" height="74.312"/>
	</g>
	<g>
		<rect id="_x31_85-439-35" x="439" y="35.844" fill="#FFFF00" stroke="#FFFF00" width="16" height="74.312"/>
		<rect id="_x31_86-439-35" x="439" y="35.844" fill="none" stroke="#000000" width="16" height="74.312"/>
	</g>
	<g>
		<rect id="_x31_88-528-35" x="528" y="35.844" fill="#FFFF00" stroke="#FFFF00" width="19" height="74.312"/>
		<rect id="_x31_89-528-35" x="528" y="35.844" fill="none" stroke="#000000" width="19" height="74.312"/>
	</g>
	<g>
		<rect id="_x31_91-590-35" x="590" y="35.844" fill="#FFFF00" stroke="#FFFF00" width="21" height="74.312"/>
		<rect id="_x31_92-590-35" x="590" y="35.844" fill="none" stroke="#000000" width="21" height="74.312"/>
	</g>
	<g>
		<rect id="_x31_94-654-35" x="654" y="35.844" fill="#FFFF00" stroke="#FFFF00" width="28" height="74.312"/>
		<rect id="_x31_95-654-35" x="654" y="35.844" fill="none" stroke="#000000" width="28" height="74.312"/>
	</g>
	<g>
		<rect id="_x31_97-754-35" x="754" y="35.844" fill="#FFFF00" stroke="#FFFF00" width="16" height="74.312"/>
		<rect id="_x31_98-754-35" x="754" y="35.844" fill="none" stroke="#000000" width="16" height="74.312"/>
	</g>
</g>
<text id="_x31_99-754-23" transform="matrix(1 0 0 1 754 32)" font-family="'ArialMT'" font-size="11">V9</text>
<g>
	<g>
		<g>
			<line fill="none" stroke="#000000" stroke-miterlimit="10" x1="190.5" y1="51" x2="196.5" y2="51"/>
			
				<line fill="none" stroke="#000000" stroke-miterlimit="10" stroke-dasharray="11.5789,11.5789" x1="208.079" y1="51" x2="410.711" y2="51"/>
			<line fill="none" stroke="#000000" stroke-miterlimit="10" x1="416.5" y1="51" x2="422.5" y2="51"/>
		</g>
	</g>
	<g>
		<g>
			<g>
				<g>
					<g>
						<line id="_x32_32-186-63.5" fill="none" stroke="#000000" stroke-linecap="square" x1="186" y1="51" x2="195" y2="51"/>
						<rect id="_x32_33-186-60" x="186" y="47.5" fill="#0000FF" stroke="#0000FF" width="9" height="7"/>
						<rect id="_x32_34-186-60" x="186" y="47.5" fill="none" stroke="#000000" width="9" height="7"/>
					</g>
				</g>
			</g>
			<text id="_x32_35-186-48" transform="matrix(1 0 0 1 186 44.5)" font-family="'ArialMT'" font-size="11">341F</text>
		</g>
		<g>
			<g>
				<g>
					<g>
						<line id="_x32_36-417-63.5" fill="none" stroke="#000000" stroke-linecap="square" x1="417" y1="51" x2="428" y2="51"/>
						<rect id="_x32_37-417-60" x="417" y="47.5" fill="#0000FF" stroke="#0000FF" width="11" height="7"/>
						<rect id="_x32_38-417-60" x="417" y="47.5" fill="none" stroke="#000000" width="11" height="7"/>
					</g>
				</g>
			</g>
			<text id="_x32_39-417-48" transform="matrix(1 0 0 1 417 44.5)" font-family="'ArialMT'" font-size="11">805R</text>
		</g>
	</g>
</g>
<g>
	<g>
		<g>
			<line fill="none" stroke="#000000" stroke-miterlimit="10" x1="282.5" y1="101.5" x2="288.5" y2="101.5"/>
			
				<line fill="none" stroke="#000000" stroke-miterlimit="10" stroke-dasharray="11.6364,11.6364" x1="300.136" y1="101.5" x2="410.682" y2="101.5"/>
			<line fill="none" stroke="#000000" stroke-miterlimit="10" x1="416.5" y1="101.5" x2="422.5" y2="101.5"/>
		</g>
	</g>
	<g>
		<g>
			<g>
				<g>
					<g>
						<line id="_x32_04-418-84.5" fill="none" stroke="#000000" stroke-linecap="square" x1="418" y1="101.5" x2="428" y2="101.5"/>
						<rect id="_x32_05-418-81" x="418" y="98" fill="#0000FF" stroke="#0000FF" width="10" height="7"/>
						<rect id="_x32_06-418-81" x="418" y="98" fill="none" stroke="#000000" width="10" height="7"/>
					</g>
				</g>
			</g>
			<text id="_x32_07-418-69" transform="matrix(1 0 0 1 418 95)" font-family="'ArialMT'" font-size="11">806R</text>
		</g>
		<g>
			<g>
				<g>
					<g>
						<line id="_x32_08-277-84.5" fill="none" stroke="#000000" stroke-linecap="square" x1="277" y1="101.5" x2="287" y2="101.5"/>
						<rect id="_x32_09-277-81" x="277" y="98" fill="#0000FF" stroke="#0000FF" width="10" height="7"/>
						<rect id="_x32_10-277-81" x="277" y="98" fill="none" stroke="#000000" width="10" height="7"/>
					</g>
				</g>
			</g>
			<text id="_x32_11-277-69" transform="matrix(1 0 0 1 277 95)" font-family="'ArialMT'" font-size="11">515F</text>
		</g>
	</g>
</g>
<g>
	<g>
		<g>
			<line fill="none" stroke="#000000" stroke-miterlimit="10" x1="281.5" y1="76.25" x2="287.5" y2="76.25"/>
			
				<line fill="none" stroke="#000000" stroke-miterlimit="10" stroke-dasharray="12.7667,12.7667" x1="300.267" y1="76.25" x2="472.616" y2="76.25"/>
			<line fill="none" stroke="#000000" stroke-miterlimit="10" x1="479" y1="76.25" x2="485" y2="76.25"/>
		</g>
	</g>
	<g>
		<g>
			<g>
				<g>
					<g>
						<line id="_x32_00-277-63.5" fill="none" stroke="#000000" stroke-linecap="square" x1="277" y1="76.25" x2="287" y2="76.25"/>
						<rect id="_x32_01-277-60" x="277" y="72.75" fill="#0000FF" stroke="#0000FF" width="10" height="7"/>
						<rect id="_x32_02-277-60" x="277" y="72.75" fill="none" stroke="#000000" width="10" height="7"/>
					</g>
				</g>
			</g>
			<text id="_x32_03-277-48" transform="matrix(1 0 0 1 277 69.75)" font-family="'ArialMT'" font-size="11">515F</text>
		</g>
		<g>
			<g>
				<g>
					<g>
						<line id="_x32_12-480-63.5" fill="none" stroke="#000000" stroke-linecap="square" x1="480" y1="76.25" x2="490" y2="76.25"/>
						<rect id="_x32_13-480-60" x="480" y="72.75" fill="#0000FF" stroke="#0000FF" width="10" height="7"/>
						<rect id="_x32_14-480-60" x="480" y="72.75" fill="none" stroke="#000000" width="10" height="7"/>
					</g>
				</g>
			</g>
			<text id="_x32_15-480-48" transform="matrix(1 0 0 1 480 69.75)" font-family="'ArialMT'" font-size="11">926R</text>
		</g>
	</g>
</g>
<line opacity="0.6" fill="none" stroke="#000000" stroke-width="0.5" enable-background="new    " x1="2" y1="59.167" x2="820" y2="59.167"/>
<line opacity="0.6" fill="none" stroke="#000000" stroke-width="0.5" enable-background="new    " x1="2" y1="84.5" x2="820" y2="84.5"/>
</svg>
